# Blender v2.79 (sub 0) OBJ File: ''
# www.blender.org
mtllib lever_floor.mtl
o Cube_Cube.001
v -0.236846 -0.600139 0.158408
v -0.236846 -0.513851 0.158408
v -0.236846 -0.600139 -0.162577
v -0.236846 -0.513851 -0.162577
v 0.228031 -0.600139 0.158408
v 0.228031 -0.513851 0.158408
v 0.228031 -0.600139 -0.162577
v 0.228031 -0.513851 -0.162577
vn -1.0000 0.0000 0.0000
vn 0.0000 0.0000 -1.0000
vn 1.0000 0.0000 0.0000
vn 0.0000 0.0000 1.0000
vn 0.0000 -1.0000 0.0000
vn 0.0000 1.0000 0.0000
usemtl None
s off
f 1//1 2//1 4//1 3//1
f 3//2 4//2 8//2 7//2
f 7//3 8//3 6//3 5//3
f 5//4 6//4 2//4 1//4
f 3//5 7//5 5//5 1//5
f 8//6 4//6 2//6 6//6
o Cube_Cube.001
v -0.063471 -0.593360 0.073839
v -0.396533 0.426048 0.073839
v -0.396533 0.426048 -0.084765
v -0.063471 -0.593360 -0.084765
v -0.236691 0.478271 -0.084765
v 0.096371 -0.541137 -0.084765
v -0.236691 0.478271 0.073839
v 0.096371 -0.541137 0.073839
vn -0.9506 -0.3106 0.0000
vn 0.0000 0.0000 -1.0000
vn 0.9506 0.3106 0.0000
vn 0.0000 -0.0000 1.0000
vn 0.3106 -0.9506 0.0000
vn -0.3106 0.9506 0.0000
usemtl None
s 1
f 9//7 10//7 11//7 12//7
f 12//8 11//8 13//8 14//8
f 14//9 13//9 15//9 16//9
f 16//10 15//10 10//10 9//10
f 12//11 14//11 16//11 9//11
f 13//12 11//12 10//12 15//12
